<svg width="512" height="512" version="1.1" xmlns="http://www.w3.org/2000/svg" desc="Created with imagetracer.js version 1.2.6" ><path fill="rgb(0,0,0)" stroke="rgb(0,0,0)" stroke-width="1" opacity="0.9686274509803922" d="M 115.5 27 L 396.5 27 Q 438 34 460 60.5 L 476 84.5 L 482 100.5 L 485 115.5 L 485 396.5 Q 478 438 451.5 460 L 427.5 476 L 411.5 482 L 396.5 485 L 115.5 485 L 97.5 481 L 80.5 474 Q 64.2 464.8 52 451.5 L 36 427.5 L 30 411.5 L 27 396.5 L 27 115.5 Q 34 74 60.5 52 L 84.5 36 L 97.5 31 L 115.5 27 Z M 118 59 Q 103 62 93 68 L 78 79 L 68 93 L 64 101 L 59 118 L 59 395 L 64 412 L 68 420 L 78 433 L 93 444 Q 103 450 118 453 L 395 453 Q 418 448 433 434 Q 448 420 453 395 L 453 118 Q 448 94 434 80 Q 420 64 395 59 L 118 59 Z " /><path fill="rgb(0,0,0)" stroke="rgb(0,0,0)" stroke-width="1" opacity="0.9686274509803922" d="M 278.5 163 Q 292 162.5 296 171.5 L 298 180.5 L 246 337.5 L 238.5 347 L 232.5 349 L 227.5 349 L 219 345 L 216 340.5 L 214 331.5 L 266 174.5 L 273.5 165 L 278.5 163 Z " /><path fill="rgb(0,0,0)" stroke="rgb(0,0,0)" stroke-width="1" opacity="0.9686274509803922" d="M 175.5 189 L 183.5 189 L 191 193 L 195 200.5 L 195 208.5 L 193 213.5 L 151 256.5 L 193 298.5 Q 196.1 302.9 195 311.5 L 191 319 L 183.5 323 L 175.5 323 L 170.5 321 L 114 264.5 Q 111 260.5 112 252.5 L 114 247.5 L 170.5 191 L 175.5 189 Z " /><path fill="rgb(0,0,0)" stroke="rgb(0,0,0)" stroke-width="1" opacity="0.9686274509803922" d="M 328.5 189 Q 337.1 187.9 341.5 191 L 398 247.5 Q 401 251.5 400 259.5 L 398 264.5 L 341.5 321 Q 337.1 324.1 328.5 323 L 321 319 L 317 311.5 L 317 303.5 L 319 298.5 L 361 255.5 L 319 213.5 Q 315.9 209.1 317 200.5 L 321 193 L 328.5 189 Z " /><path fill="rgb(0,0,0)" stroke="rgb(0,0,0)" stroke-width="1" opacity="0" d="M 0 0 L 512 0 L 512 512 L 0 512 L 0 0 Z M 116 27 L 98 31 L 85 36 L 61 52 Q 34 74 27 116 L 27 397 L 30 412 L 36 428 L 52 452 Q 64 465 81 474 L 98 481 L 116 485 L 397 485 L 412 482 L 428 476 L 452 460 Q 478 438 485 397 L 485 116 L 482 101 L 476 85 L 460 61 Q 438 34 397 27 L 116 27 Z " /><path fill="rgb(0,0,0)" stroke="rgb(0,0,0)" stroke-width="1" opacity="0" d="M 117.5 59 L 394.5 59 Q 419.6 63.9 434 79.5 Q 448.3 93.7 453 117.5 L 453 394.5 Q 448.1 419.6 432.5 434 Q 418.3 448.3 394.5 453 L 117.5 453 Q 103 450.5 92.5 444 L 78 433 L 68 419.5 L 64 411.5 L 59 394.5 L 59 117.5 L 64 100.5 L 68 92.5 L 78 79 L 92.5 68 Q 103 61.5 117.5 59 Z M 279 163 L 274 165 L 266 175 L 214 332 L 216 341 L 219 345 L 228 349 L 233 349 L 239 347 L 246 338 L 298 181 L 296 172 Q 292 162 279 163 Z M 176 189 L 171 191 L 114 248 L 112 253 Q 111 261 114 265 L 171 321 L 176 323 L 184 323 L 191 319 L 195 312 Q 196 303 193 299 L 151 257 L 193 214 L 195 209 L 195 201 L 191 193 L 184 189 L 176 189 Z M 329 189 L 321 193 L 317 201 Q 316 209 319 214 L 361 256 L 319 299 L 317 304 L 317 312 L 321 319 L 329 323 Q 337 324 342 321 L 398 265 L 400 260 Q 401 252 398 248 L 342 191 Q 337 188 329 189 Z " /></svg>